<svg width="1855" height="223" viewBox="0 0 1855 223" fill="none" xmlns="http://www.w3.org/2000/svg">
    <path d="M590.641 174.964V223.56L548.568 247.934V199.183L590.641 174.964Z" stroke="#058F2C"/>
    <path d="M886.927 249.48C886.927 247.915 885.951 246.705 884.543 246.114V200.122L926.615 224.497V273.089L886.826 250.021C886.866 249.901 886.927 249.718 886.927 249.48Z" stroke="#058F2C"/>
    <path d="M842.206 175.334L884.279 199.553L842.205 223.928L799.978 199.554L820.361 187.906L820.362 187.905L842.206 175.334Z" stroke="#058F2C"/>
    <path d="M800.543 199.141V150.39L842.774 126.168V174.765L800.543 199.141Z" stroke="#058F2C"/>
    <path d="M716.06 199.363L695.356 187.247L695.352 187.245L673.987 174.992V126.396L694.853 138.363L694.855 138.364L716.06 150.616V199.363Z" stroke="#058F2C"/>
    <path d="M632.577 53.873V101.467C632.295 101.595 632.001 101.754 631.755 101.932L590.504 78.0911V29.4987L632.577 53.873Z" stroke="#058F2C"/>
    <path d="M548.568 102.466V53.8731L590.641 29.4987V78.0915L548.568 102.466Z" stroke="#058F2C"/>
    <path d="M548.568 150.472V101.721L590.641 126.096V174.691L548.568 150.472Z" stroke="#058F2C"/>
    <path d="M632.052 150.109V102.584C632.379 102.447 632.739 102.262 633.033 102.05L674.125 125.89V174.483L632.052 150.109Z" stroke="#058F2C"/>
    <path d="M632.052 248.433V199.682L674.125 175.463V224.059L632.052 248.433Z" stroke="#058F2C"/>
    <path d="M716.06 199.682V248.433L673.987 224.059V175.462L694.853 187.429L694.855 187.43L716.06 199.682Z" stroke="#058F2C"/>
    <path d="M755.793 176.331L716.059 199.367V150.775L740.445 136.615L740.446 136.615L758.132 126.399V172.373C756.821 172.877 755.748 174.226 755.748 175.758L755.748 175.777C755.748 175.921 755.748 176.077 755.775 176.238C755.78 176.269 755.786 176.3 755.793 176.331Z" stroke="#058F2C"/>
    <path d="M798.7 247.67L757.608 223.831V176.305C757.935 176.169 758.295 175.983 758.589 175.772L799.681 199.612V247.137C799.354 247.273 798.994 247.459 798.7 247.67Z" stroke="#058F2C"/>
    <path d="M507.012 74.4893V25.7385L464.939 1.51935V50.1149L507.012 74.4893Z" stroke="#058F2C"/>
    <path d="M590.358 174.964V223.56L632.431 247.934V199.183L590.358 174.964Z" stroke="#058F2C"/>
    <path d="M377.073 249.48C377.073 247.915 378.048 246.705 379.457 246.114V200.122L337.384 224.497V273.089L377.173 250.021C377.133 249.901 377.073 249.718 377.073 249.48Z" stroke="#058F2C"/>
    <path d="M337.794 175.334L295.721 199.553L337.794 223.928L380.022 199.554L359.638 187.906L359.637 187.905L337.794 175.334Z" stroke="#058F2C"/>
    <path d="M379.457 199.141V150.39L337.225 126.168V174.765L379.457 199.141Z" stroke="#058F2C"/>
    <path d="M422.846 125.216V76.4653L380.773 52.2462V100.842L422.846 125.216Z" stroke="#058F2C"/>
    <path d="M422.845 76.3339V124.93L436.739 133.048L436.743 133.05L465.077 149.307V100.71L422.845 76.3339Z" stroke="#058F2C"/>
    <path d="M464.939 198.363L485.644 186.247L485.647 186.245L507.012 173.992V125.396L486.146 137.363L486.145 137.364L464.939 149.616V198.363Z" stroke="#058F2C"/>
    <path d="M507.012 124.929V76.3355L464.939 100.71V149.304L485.645 137.34L485.646 137.34L507.012 124.929Z" stroke="#058F2C"/>
    <path d="M632.431 150.472V101.721L590.358 126.096V174.691L632.431 150.472Z" stroke="#058F2C"/>
    <path d="M548.948 247.433V198.682L506.875 174.463V223.059L548.948 247.433Z" stroke="#058F2C"/>
    <path d="M464.939 198.682V247.433L507.012 223.059V174.462L486.146 186.429L486.145 186.43L464.939 198.682Z" stroke="#058F2C"/>
    <path d="M425.206 175.331L464.94 198.367V149.775L440.554 135.615L440.553 135.614L422.867 125.399V171.373C424.178 171.877 425.251 173.226 425.251 174.758L425.251 174.777C425.251 174.921 425.251 175.077 425.225 175.238C425.219 175.269 425.213 175.3 425.206 175.331Z" stroke="#058F2C"/>
    <path d="M381.299 247.67L422.392 223.831V176.305C422.065 176.169 421.704 175.983 421.411 175.772L380.319 199.612V247.137C380.646 247.273 381.006 247.459 381.299 247.67Z" stroke="#058F2C"/>
    <path d="M209.988 196.489V147.738L252.061 123.519V172.115L209.988 196.489Z" stroke="#058F2C"/>
    <path d="M295.154 199.216V150.465L337.227 126.246V174.842L295.154 199.216Z" stroke="#058F2C"/>
    <path d="M295.155 198.334V246.93L281.26 255.048L281.257 255.05L252.923 271.307V222.71L295.155 198.334Z" stroke="#058F2C"/>
    <path d="M209.988 246.929V198.336L252.061 222.71V271.304L231.355 259.34L231.354 259.34L209.988 246.929Z" stroke="#058F2C"/>
    <path d="M169.577 125.873V173.467C169.295 173.595 169.001 173.754 168.754 173.932L127.504 150.091V101.499L169.577 125.873Z" stroke="#058F2C"/>
    <path d="M84.5687 174.466V125.873L126.642 101.499V150.091L84.5687 174.466Z" stroke="#058F2C"/>
    <path d="M42.4998 247.835V199.242L84.5728 174.868V223.46L42.4998 247.835Z" stroke="#058F2C"/>
    <path d="M0.499817 271.835V223.242L42.5728 198.868V247.46L0.499817 271.835Z" stroke="#058F2C"/>
    <path d="M84.5687 222.472V173.721L126.642 198.096V246.691L84.5687 222.472Z" stroke="#058F2C"/>
    <path d="M127.073 198.391L85.001 174.173L103.799 163.322L103.8 163.321L127.072 149.956L168.157 173.791C168.117 173.911 168.056 174.094 168.056 174.332V174.351C168.056 174.495 168.056 174.651 168.083 174.812C168.088 174.842 168.094 174.872 168.101 174.902L127.073 198.391Z" stroke="#058F2C"/>
    <path d="M168.052 222.109V174.583C168.379 174.447 168.739 174.262 169.033 174.05L210.125 197.89V246.483L168.052 222.109Z" stroke="#058F2C"/>
    <path d="M1263.47 174.964V223.56L1305.55 247.934V199.183L1263.47 174.964Z" stroke="#058F2C"/>
    <path d="M967.189 249.48C967.189 247.915 968.164 246.705 969.573 246.114V200.122L927.5 224.497V273.089L967.289 250.021C967.249 249.901 967.189 249.718 967.189 249.48Z" stroke="#058F2C"/>
    <path d="M1011.91 175.334L969.836 199.553L1011.91 223.928L1054.14 199.554L1033.75 187.906L1033.75 187.905L1011.91 175.334Z" stroke="#058F2C"/>
    <path d="M1053.57 199.141V150.39L1011.34 126.168V174.765L1053.57 199.141Z" stroke="#058F2C"/>
    <path d="M1138.06 199.363L1158.76 187.247L1158.76 187.245L1180.13 174.992V126.396L1159.26 138.363L1159.26 138.364L1138.06 150.616V199.363Z" stroke="#058F2C"/>
    <path d="M1221.54 53.873V101.467C1221.82 101.595 1222.11 101.754 1222.36 101.932L1263.61 78.0911V29.4987L1221.54 53.873Z" stroke="#058F2C"/>
    <path d="M1305.55 102.466V53.8731L1263.47 29.4987V78.0915L1305.55 102.466Z" stroke="#058F2C"/>
    <path d="M1305.55 150.472V101.721L1263.47 126.096V174.691L1305.55 150.472Z" stroke="#058F2C"/>
    <path d="M1222.06 150.109V102.584C1221.74 102.447 1221.38 102.262 1221.08 102.05L1179.99 125.89V174.483L1222.06 150.109Z" stroke="#058F2C"/>
    <path d="M1222.06 248.433V199.682L1179.99 175.463V224.059L1222.06 248.433Z" stroke="#058F2C"/>
    <path d="M1138.06 199.682V248.433L1180.13 224.059V175.462L1159.26 187.429L1159.26 187.43L1138.06 199.682Z" stroke="#058F2C"/>
    <path d="M1098.32 176.331L1138.06 199.367V150.775L1113.67 136.615L1113.67 136.615L1095.98 126.399V172.373C1097.29 172.877 1098.37 174.226 1098.37 175.758L1098.37 175.777C1098.37 175.921 1098.37 176.077 1098.34 176.238C1098.34 176.269 1098.33 176.3 1098.32 176.331Z" stroke="#058F2C"/>
    <path d="M1055.42 247.67L1096.51 223.831V176.305C1096.18 176.169 1095.82 175.983 1095.53 175.772L1054.43 199.612V247.137C1054.76 247.273 1055.12 247.459 1055.42 247.67Z" stroke="#058F2C"/>
    <path d="M1347.1 74.4893V25.7385L1389.18 1.51935V50.1149L1347.1 74.4893Z" stroke="#058F2C"/>
    <path d="M1263.76 174.964V223.56L1221.68 247.934V199.183L1263.76 174.964Z" stroke="#058F2C"/>
    <path d="M1477.04 249.48C1477.04 247.915 1476.07 246.705 1474.66 246.114V200.122L1516.73 224.497V273.089L1476.94 250.021C1476.98 249.901 1477.04 249.718 1477.04 249.48Z" stroke="#058F2C"/>
    <path d="M1516.32 175.334L1558.39 199.553L1516.32 223.928L1474.09 199.554L1494.48 187.906L1494.48 187.905L1516.32 175.334Z" stroke="#058F2C"/>
    <path d="M1474.66 199.141V150.39L1516.89 126.168V174.765L1474.66 199.141Z" stroke="#058F2C"/>
    <path d="M1431.27 125.216V76.4653L1473.34 52.2462V100.842L1431.27 125.216Z" stroke="#058F2C"/>
    <path d="M1431.27 76.3339V124.93L1417.38 133.048L1417.37 133.05L1389.04 149.307V100.71L1431.27 76.3339Z" stroke="#058F2C"/>
    <path d="M1389.18 198.363L1368.47 186.247L1368.47 186.245L1347.1 173.992V125.396L1367.97 137.363L1367.97 137.364L1389.18 149.616V198.363Z" stroke="#058F2C"/>
    <path d="M1347.1 124.929V76.3355L1389.18 100.71V149.304L1368.47 137.34L1368.47 137.34L1347.1 124.929Z" stroke="#058F2C"/>
    <path d="M1221.68 150.472V101.721L1263.76 126.096V174.691L1221.68 150.472Z" stroke="#058F2C"/>
    <path d="M1305.17 247.433V198.682L1347.24 174.463V223.059L1305.17 247.433Z" stroke="#058F2C"/>
    <path d="M1389.18 198.682V247.433L1347.1 223.059V174.462L1367.97 186.429L1367.97 186.43L1389.18 198.682Z" stroke="#058F2C"/>
    <path d="M1428.91 175.331L1389.18 198.367V149.775L1413.56 135.615L1413.56 135.614L1431.25 125.399V171.373C1429.94 171.877 1428.86 173.226 1428.86 174.758L1428.86 174.777C1428.86 174.921 1428.86 175.077 1428.89 175.238C1428.9 175.269 1428.9 175.3 1428.91 175.331Z" stroke="#058F2C"/>
    <path d="M1472.82 247.67L1431.72 223.831V176.305C1432.05 176.169 1432.41 175.983 1432.7 175.772L1473.8 199.612V247.137C1473.47 247.273 1473.11 247.459 1472.82 247.67Z" stroke="#058F2C"/>
    <path d="M1644.13 196.489V147.738L1602.05 123.519V172.115L1644.13 196.489Z" stroke="#058F2C"/>
    <path d="M1558.96 199.216V150.465L1516.89 126.246V174.842L1558.96 199.216Z" stroke="#058F2C"/>
    <path d="M1558.96 198.334V246.93L1572.85 255.048L1572.86 255.05L1601.19 271.307V222.71L1558.96 198.334Z" stroke="#058F2C"/>
    <path d="M1644.13 246.929V198.336L1602.05 222.71V271.304L1622.76 259.34L1622.76 259.34L1644.13 246.929Z" stroke="#058F2C"/>
    <path d="M1684.54 125.873V173.467C1684.82 173.595 1685.11 173.754 1685.36 173.932L1726.61 150.091V101.499L1684.54 125.873Z" stroke="#058F2C"/>
    <path d="M1769.55 174.466V125.873L1727.47 101.499V150.091L1769.55 174.466Z" stroke="#058F2C"/>
    <path d="M1811.62 247.835V199.242L1769.54 174.868V223.46L1811.62 247.835Z" stroke="#058F2C"/>
    <path d="M1853.62 271.835V223.242L1811.54 198.868V247.46L1853.62 271.835Z" stroke="#058F2C"/>
    <path d="M1769.55 222.472V173.721L1727.47 198.096V246.691L1769.55 222.472Z" stroke="#058F2C"/>
    <path d="M1727.04 198.391L1769.11 174.173L1750.32 163.322L1750.32 163.321L1727.04 149.956L1685.96 173.791C1686 173.911 1686.06 174.094 1686.06 174.332V174.351C1686.06 174.495 1686.06 174.651 1686.03 174.812C1686.03 174.842 1686.02 174.872 1686.01 174.902L1727.04 198.391Z" stroke="#058F2C"/>
    <path d="M1686.06 222.109V174.583C1685.74 174.447 1685.38 174.262 1685.08 174.05L1643.99 197.89V246.483L1686.06 222.109Z" stroke="#058F2C"/>
</svg>
